<svg xmlns="http://www.w3.org/2000/svg" viewBox="0 0 520 180" width="520" height="180">
  <defs><style>.pixel{shape-rendering:crispEdges}</style></defs>
  
  <!-- ========= ICON (W9 mark) ========= -->
  <!-- Icon depth layer - #9b004b -->
  <g class="pixel" fill="#9b004b" transform="translate(16, 12)">
    <path d="M75 10 L75 50 L95 50 L95 10 Z M115 10 L115 70 L135 70 L135 10 Z M75 70 L75 90 L95 90 L95 70 Z M95 50 L95 70 L115 70 L115 50 Z M75 10 L75 30 L95 30 L95 10 Z"/>
    <rect x="145" y="10" width="20" height="20"/><rect x="165" y="10" width="20" height="20"/><rect x="185" y="10" width="20" height="20"/>
    <rect x="145" y="30" width="20" height="20"/><rect x="185" y="30" width="20" height="20"/>
    <rect x="145" y="50" width="20" height="20"/><rect x="165" y="50" width="20" height="20"/><rect x="185" y="50" width="20" height="20"/>
  </g>
  <!-- Icon mid layer - #f9a824 -->
  <g class="pixel" fill="#f9a824" transform="translate(8, 6)">
    <path d="M75 10 L75 50 L95 50 L95 10 Z M115 10 L115 70 L135 70 L135 10 Z M75 70 L75 90 L95 90 L95 70 Z M95 50 L95 70 L115 70 L115 50 Z M75 10 L75 30 L95 30 L95 10 Z"/>
    <rect x="145" y="10" width="20" height="20"/><rect x="165" y="10" width="20" height="20"/><rect x="185" y="10" width="20" height="20"/>
    <rect x="145" y="30" width="20" height="20"/><rect x="185" y="30" width="20" height="20"/>
    <rect x="145" y="50" width="20" height="20"/><rect x="165" y="50" width="20" height="20"/><rect x="185" y="50" width="20" height="20"/>
  </g>
  <!-- Icon top layer - #fde09c -->
  <g class="pixel" fill="#fde09c">
    <path d="M75 10 L75 50 L95 50 L95 10 Z M115 10 L115 70 L135 70 L135 10 Z M75 70 L75 90 L95 90 L95 70 Z M95 50 L95 70 L115 70 L115 50 Z M75 10 L75 30 L95 30 L95 10 Z"/>
    <rect x="145" y="10" width="20" height="20"/><rect x="165" y="10" width="20" height="20"/><rect x="185" y="10" width="20" height="20"/>
    <rect x="145" y="30" width="20" height="20"/><rect x="185" y="30" width="20" height="20"/>
    <rect x="145" y="50" width="20" height="20"/><rect x="165" y="50" width="20" height="20"/><rect x="185" y="50" width="20" height="20"/>
  </g>
  
  <!-- ========= WORDMARK ("Labs") ========= -->
  <!-- Wordmark depth - #9b004b -->
  <g class="pixel" fill="#9b004b" transform="translate(248, 12)">
    <rect x="10" y="10" width="20" height="20"/><rect x="10" y="30" width="20" height="20"/><rect x="10" y="50" width="20" height="20"/><rect x="30" y="50" width="20" height="20"/><rect x="50" y="50" width="20" height="20"/>
    <rect x="80" y="10" width="20" height="20"/><rect x="100" y="10" width="20" height="20"/><rect x="120" y="10" width="20" height="20"/><rect x="80" y="30" width="20" height="20"/><rect x="120" y="30" width="20" height="20"/><rect x="80" y="50" width="20" height="20"/><rect x="120" y="50" width="20" height="20"/>
    <rect x="150" y="30" width="20" height="20"/><rect x="170" y="30" width="20" height="20"/>
    <rect x="200" y="10" width="20" height="20"/><rect x="220" y="10" width="20" height="20"/><rect x="240" y="10" width="20" height="20"/><rect x="200" y="30" width="20" height="20"/><rect x="240" y="30" width="20" height="20"/><rect x="200" y="50" width="20" height="20"/><rect x="220" y="50" width="20" height="20"/><rect x="240" y="50" width="20" height="20"/>
  </g>
  <!-- Wordmark mid - #f9a824 -->
  <g class="pixel" fill="#f9a824" transform="translate(240, 6)">
    <rect x="10" y="10" width="20" height="20"/><rect x="10" y="30" width="20" height="20"/><rect x="10" y="50" width="20" height="20"/><rect x="30" y="50" width="20" height="20"/><rect x="50" y="50" width="20" height="20"/>
    <rect x="80" y="10" width="20" height="20"/><rect x="100" y="10" width="20" height="20"/><rect x="120" y="10" width="20" height="20"/><rect x="80" y="30" width="20" height="20"/><rect x="120" y="30" width="20" height="20"/><rect x="80" y="50" width="20" height="20"/><rect x="120" y="50" width="20" height="20"/>
    <rect x="150" y="30" width="20" height="20"/><rect x="170" y="30" width="20" height="20"/>
    <rect x="200" y="10" width="20" height="20"/><rect x="220" y="10" width="20" height="20"/><rect x="240" y="10" width="20" height="20"/><rect x="200" y="30" width="20" height="20"/><rect x="240" y="30" width="20" height="20"/><rect x="200" y="50" width="20" height="20"/><rect x="220" y="50" width="20" height="20"/><rect x="240" y="50" width="20" height="20"/>
  </g>
  <!-- Wordmark top - #fde09c -->
  <g class="pixel" fill="#fde09c" transform="translate(232, 0)">
    <rect x="10" y="10" width="20" height="20"/><rect x="10" y="30" width="20" height="20"/><rect x="10" y="50" width="20" height="20"/><rect x="30" y="50" width="20" height="20"/><rect x="50" y="50" width="20" height="20"/>
    <rect x="80" y="10" width="20" height="20"/><rect x="100" y="10" width="20" height="20"/><rect x="120" y="10" width="20" height="20"/><rect x="80" y="30" width="20" height="20"/><rect x="120" y="30" width="20" height="20"/><rect x="80" y="50" width="20" height="20"/><rect x="120" y="50" width="20" height="20"/>
    <rect x="150" y="30" width="20" height="20"/><rect x="170" y="30" width="20" height="20"/>
    <rect x="200" y="10" width="20" height="20"/><rect x="220" y="10" width="20" height="20"/><rect x="240" y="10" width="20" height="20"/><rect x="200" y="30" width="20" height="20"/><rect x="240" y="30" width="20" height="20"/><rect x="200" y="50" width="20" height="20"/><rect x="220" y="50" width="20" height="20"/><rect x="240" y="50" width="20" height="20"/>
  </g>
</svg>
