<svg xmlns="http://www.w3.org/2000/svg" viewBox="0 0 720 180" width="720" height="180">
  <defs>
    <style>
      .pixel { shape-rendering: crispEdges; }
    </style>
  </defs>
  <!-- Depth layer (back) - #9b004b -->
  <g class="pixel" fill="#9b004b" transform="translate(16, 12)">
    <!-- W -->
    <rect x="10" y="10" width="20" height="20"/>
    <rect x="10" y="30" width="20" height="20"/>
    <rect x="30" y="30" width="20" height="20"/>
    <rect x="50" y="30" width="20" height="20"/>
    <rect x="50" y="10" width="20" height="20"/>
    <rect x="10" y="50" width="20" height="20"/>
    <rect x="50" y="50" width="20" height="20"/>
    <!-- 9 -->
    <rect x="80" y="10" width="20" height="20"/>
    <rect x="100" y="10" width="20" height="20"/>
    <rect x="120" y="10" width="20" height="20"/>
    <rect x="80" y="30" width="20" height="20"/>
    <rect x="120" y="30" width="20" height="20"/>
    <rect x="80" y="50" width="20" height="20"/>
    <rect x="100" y="50" width="20" height="20"/>
    <rect x="120" y="50" width="20" height="20"/>
    <!-- L -->
    <rect x="160" y="10" width="20" height="20"/>
    <rect x="160" y="30" width="20" height="20"/>
    <rect x="160" y="50" width="20" height="20"/>
    <rect x="180" y="50" width="20" height="20"/>
    <rect x="200" y="50" width="20" height="20"/>
    <!-- A -->
    <rect x="230" y="10" width="20" height="20"/>
    <rect x="250" y="10" width="20" height="20"/>
    <rect x="270" y="10" width="20" height="20"/>
    <rect x="230" y="30" width="20" height="20"/>
    <rect x="270" y="30" width="20" height="20"/>
    <rect x="230" y="50" width="20" height="20"/>
    <rect x="270" y="50" width="20" height="20"/>
    <!-- B -->
    <rect x="300" y="10" width="20" height="20"/>
    <rect x="320" y="10" width="20" height="20"/>
    <rect x="340" y="10" width="20" height="20"/>
    <rect x="300" y="30" width="20" height="20"/>
    <rect x="340" y="30" width="20" height="20"/>
    <rect x="300" y="50" width="20" height="20"/>
    <rect x="320" y="50" width="20" height="20"/>
    <rect x="340" y="50" width="20" height="20"/>
    <!-- S -->
    <rect x="370" y="10" width="20" height="20"/>
    <rect x="390" y="10" width="20" height="20"/>
    <rect x="410" y="10" width="20" height="20"/>
    <rect x="370" y="30" width="20" height="20"/>
    <rect x="390" y="30" width="20" height="20"/>
    <rect x="370" y="50" width="20" height="20"/>
    <rect x="390" y="50" width="20" height="20"/>
    <rect x="410" y="50" width="20" height="20"/>
  </g>
  <!-- Mid layer - #f9a824 -->
  <g class="pixel" fill="#f9a824" transform="translate(8, 6)">
    <!-- W -->
    <rect x="10" y="10" width="20" height="20"/>
    <rect x="10" y="30" width="20" height="20"/>
    <rect x="30" y="30" width="20" height="20"/>
    <rect x="50" y="30" width="20" height="20"/>
    <rect x="50" y="10" width="20" height="20"/>
    <rect x="10" y="50" width="20" height="20"/>
    <rect x="50" y="50" width="20" height="20"/>
    <!-- 9 -->
    <rect x="80" y="10" width="20" height="20"/>
    <rect x="100" y="10" width="20" height="20"/>
    <rect x="120" y="10" width="20" height="20"/>
    <rect x="80" y="30" width="20" height="20"/>
    <rect x="120" y="30" width="20" height="20"/>
    <rect x="80" y="50" width="20" height="20"/>
    <rect x="100" y="50" width="20" height="20"/>
    <rect x="120" y="50" width="20" height="20"/>
    <!-- L -->
    <rect x="160" y="10" width="20" height="20"/>
    <rect x="160" y="30" width="20" height="20"/>
    <rect x="160" y="50" width="20" height="20"/>
    <rect x="180" y="50" width="20" height="20"/>
    <rect x="200" y="50" width="20" height="20"/>
    <!-- A -->
    <rect x="230" y="10" width="20" height="20"/>
    <rect x="250" y="10" width="20" height="20"/>
    <rect x="270" y="10" width="20" height="20"/>
    <rect x="230" y="30" width="20" height="20"/>
    <rect x="270" y="30" width="20" height="20"/>
    <rect x="230" y="50" width="20" height="20"/>
    <rect x="270" y="50" width="20" height="20"/>
    <!-- B -->
    <rect x="300" y="10" width="20" height="20"/>
    <rect x="320" y="10" width="20" height="20"/>
    <rect x="340" y="10" width="20" height="20"/>
    <rect x="300" y="30" width="20" height="20"/>
    <rect x="340" y="30" width="20" height="20"/>
    <rect x="300" y="50" width="20" height="20"/>
    <rect x="320" y="50" width="20" height="20"/>
    <rect x="340" y="50" width="20" height="20"/>
    <!-- S -->
    <rect x="370" y="10" width="20" height="20"/>
    <rect x="390" y="10" width="20" height="20"/>
    <rect x="410" y="10" width="20" height="20"/>
    <rect x="370" y="30" width="20" height="20"/>
    <rect x="390" y="30" width="20" height="20"/>
    <rect x="370" y="50" width="20" height="20"/>
    <rect x="390" y="50" width="20" height="20"/>
    <rect x="410" y="50" width="20" height="20"/>
  </g>
  <!-- Top/front layer - #fde09c -->
  <g class="pixel" fill="#fde09c">
    <!-- W -->
    <rect x="10" y="10" width="20" height="20"/>
    <rect x="10" y="30" width="20" height="20"/>
    <rect x="30" y="30" width="20" height="20"/>
    <rect x="50" y="30" width="20" height="20"/>
    <rect x="50" y="10" width="20" height="20"/>
    <rect x="10" y="50" width="20" height="20"/>
    <rect x="50" y="50" width="20" height="20"/>
    <!-- 9 -->
    <rect x="80" y="10" width="20" height="20"/>
    <rect x="100" y="10" width="20" height="20"/>
    <rect x="120" y="10" width="20" height="20"/>
    <rect x="80" y="30" width="20" height="20"/>
    <rect x="120" y="30" width="20" height="20"/>
    <rect x="80" y="50" width="20" height="20"/>
    <rect x="100" y="50" width="20" height="20"/>
    <rect x="120" y="50" width="20" height="20"/>
    <!-- L -->
    <rect x="160" y="10" width="20" height="20"/>
    <rect x="160" y="30" width="20" height="20"/>
    <rect x="160" y="50" width="20" height="20"/>
    <rect x="180" y="50" width="20" height="20"/>
    <rect x="200" y="50" width="20" height="20"/>
    <!-- A -->
    <rect x="230" y="10" width="20" height="20"/>
    <rect x="250" y="10" width="20" height="20"/>
    <rect x="270" y="10" width="20" height="20"/>
    <rect x="230" y="30" width="20" height="20"/>
    <rect x="270" y="30" width="20" height="20"/>
    <rect x="230" y="50" width="20" height="20"/>
    <rect x="270" y="50" width="20" height="20"/>
    <!-- B -->
    <rect x="300" y="10" width="20" height="20"/>
    <rect x="320" y="10" width="20" height="20"/>
    <rect x="340" y="10" width="20" height="20"/>
    <rect x="300" y="30" width="20" height="20"/>
    <rect x="340" y="30" width="20" height="20"/>
    <rect x="300" y="50" width="20" height="20"/>
    <rect x="320" y="50" width="20" height="20"/>
    <rect x="340" y="50" width="20" height="20"/>
    <!-- S -->
    <rect x="370" y="10" width="20" height="20"/>
    <rect x="390" y="10" width="20" height="20"/>
    <rect x="410" y="10" width="20" height="20"/>
    <rect x="370" y="30" width="20" height="20"/>
    <rect x="390" y="30" width="20" height="20"/>
    <rect x="370" y="50" width="20" height="20"/>
    <rect x="390" y="50" width="20" height="20"/>
    <rect x="410" y="50" width="20" height="20"/>
  </g>
</svg>
